<?xml version="1.0" standalone="no"?>
<!DOCTYPE svg PUBLIC "-//W3C//DTD SVG 20010904//EN"
 "http://www.w3.org/TR/2001/REC-SVG-20010904/DTD/svg10.dtd">
<svg version="1.0" xmlns="http://www.w3.org/2000/svg"
 width="96.000000pt" height="96.000000pt" viewBox="0 0 96.000000 96.000000"
 preserveAspectRatio="xMidYMid meet">

<g transform="translate(0.000000,96.000000) scale(0.100000,-0.100000)"
fill="#000000" stroke="none">
<path d="M152 808 c-17 -17 -17 -279 0 -296 16 -16 620 -17 649 -2 17 10 19
22 19 148 0 94 -4 142 -12 150 -17 17 -639 17 -656 0z m616 -50 c16 -16 16
-180 0 -196 -17 -17 -559 -17 -576 0 -13 13 -17 189 -5 201 3 4 133 7 288 7
205 0 284 -3 293 -12z"/>
<path d="M322 708 c-27 -27 -7 -78 29 -78 21 0 49 26 49 45 0 35 -53 58 -78
33z m33 -8 c3 -6 -1 -13 -10 -16 -19 -8 -30 0 -20 15 8 14 22 14 30 1z"/>
<path d="M572 708 c-36 -36 7 -91 54 -69 42 19 26 81 -21 81 -12 0 -26 -5 -33
-12z m33 -16 c0 -18 -20 -15 -23 4 -3 10 1 15 10 12 7 -3 13 -10 13 -16z"/>
<path d="M417 653 c-11 -11 -8 -22 13 -43 38 -38 110 -17 110 31 0 17 -7 19
-58 19 -32 0 -62 -3 -65 -7z m83 -33 c0 -5 -11 -10 -25 -10 -14 0 -25 5 -25
10 0 6 11 10 25 10 14 0 25 -4 25 -10z"/>
<path d="M511 447 c-16 -16 -15 -279 1 -295 17 -17 279 -17 296 0 17 17 17
282 0 296 -18 14 -282 14 -297 -1z m159 -97 c0 -13 7 -20 19 -20 11 0 23 -4
26 -10 4 -6 -5 -10 -19 -10 -21 0 -26 -5 -26 -25 0 -14 -4 -25 -10 -25 -5 0
-10 12 -10 26 0 19 -5 24 -18 22 -11 -2 -21 2 -23 7 -2 6 6 11 19 13 14 2 22
10 22 23 0 10 5 19 10 19 6 0 10 -9 10 -20z"/>
<path d="M451 192 c-1 -10 -34 -12 -156 -10 -154 3 -172 -1 -143 -30 8 -8 56
-12 149 -12 144 0 166 7 156 47 -3 10 -5 12 -6 5z"/>
</g>
</svg>
